<?xml version="1.0" standalone="no"?>
<!DOCTYPE svg PUBLIC "-//W3C//DTD SVG 20010904//EN" "http://www.w3.org/TR/2001/REC-SVG-20010904/DTD/svg10.dtd">
<!-- Created using Krita: https://krita.org -->
<svg xmlns="http://www.w3.org/2000/svg" 
    xmlns:xlink="http://www.w3.org/1999/xlink"
    xmlns:krita="http://krita.org/namespaces/svg/krita"
    xmlns:sodipodi="http://sodipodi.sourceforge.net/DTD/sodipodi-0.dtd"
    width="1449.36pt"
    height="397.44pt"
    viewBox="0 0 1449.36 397.44">
<defs/>
<path id="shape0" transform="matrix(0.72 0 0 0.72 44.1359637310381 29.9096315474398)" fill="#d1d1d1" stroke="#000000" stroke-opacity="0" stroke-width="0" stroke-linecap="square" stroke-linejoin="bevel" d="M937.628 3.37466C1027.54 -3.20534 1118 0.214658 1207.52 10.3547C1222.67 11.1447 1237.28 15.4747 1251.71 19.8047C1297.29 23.6947 1342.85 27.8747 1388.4 32.1447C1436.94 36.9847 1485.29 43.5347 1533.57 50.4347C1580.01 57.1347 1626.38 64.2947 1672.7 71.7647C1725.99 80.2647 1779.1 89.8347 1832.45 97.9447C1843.1 99.7747 1853.87 101.005 1864.46 103.195C1867.37 103.485 1869.98 106.105 1869.56 109.145C1868.16 111.085 1865.89 109.335 1864.31 108.715C1862.54 107.685 1860.54 108.485 1858.74 108.795C1841.83 112.865 1824.88 116.775 1807.99 120.895C1804.4 121.825 1800.07 123.425 1799.06 127.435C1788.45 163.145 1777.76 198.835 1767.01 234.495C1766.33 236.525 1768.28 238.055 1769.97 238.675C1779.94 242.565 1789.99 246.275 1799.96 250.195C1804.25 252.095 1809.04 251.025 1813.59 251.225C1839 251.225 1864.43 250.535 1889.84 251.075C1889.11 259.715 1887.11 269.095 1880.14 274.955C1875.94 278.415 1871.43 282.485 1871.42 288.405C1871.62 298.735 1871.72 309.075 1871.47 319.405C1871.54 321.665 1870.19 324.295 1867.66 324.335C1843.98 327.565 1820.3 330.795 1796.66 334.295C1786.59 347.475 1775.15 359.725 1761.78 369.605C1747.62 380.205 1731.15 388.025 1713.62 390.885C1707 392.075 1700.25 392.085 1693.56 392.445C1692.22 392.495 1690.22 392.075 1690.17 390.435C1691.22 387.125 1693.87 383.965 1692.9 380.315C1690.25 378.005 1686.6 379.945 1683.53 379.815C1681.46 380.295 1678.85 378.795 1679.67 376.435C1681.17 372.175 1683.92 368.405 1684.98 363.945C1690.85 343.645 1690.47 322.175 1689.01 301.285C1687.88 288.225 1686.81 274.945 1682.21 262.545C1672.19 234.605 1652.12 211.155 1628.51 193.605C1598.28 171.325 1560.39 158.175 1522.62 161.335C1501.4 162.955 1481.11 170.465 1462.25 179.995C1436.5 193.105 1414.04 213.165 1399.68 238.385C1389.49 255.935 1383.24 275.515 1379.56 295.405C1374.99 318.085 1377.88 341.665 1384.43 363.655C1385.72 368.985 1388.59 373.835 1389.6 379.215C1387.78 381.095 1383.81 378.445 1382.37 381.215C1385.48 390.785 1388.89 400.265 1391.88 409.875C1392.5 411.835 1392.8 415.525 1389.77 415.335C1166.05 422.165 942.307 428.985 718.577 435.815C651.747 437.655 584.957 440.615 518.137 442.765C526.167 438.545 534.107 434.165 542.077 429.865C545.277 417.425 548.987 405.115 553.307 393.015C556.437 384.855 558.287 376.145 558.187 367.385C558.247 357.585 555.567 348.075 554.917 338.345C554.727 335.485 553.927 332.705 552.617 330.165C550.957 331.415 550.047 333.285 549.907 335.335C546.067 371.525 528.717 406.085 502.297 431.065C480.247 452.075 450.907 464.945 420.627 467.695C397.147 469.985 373.307 466.565 350.947 459.305C323.667 450.385 299.177 432.815 282.797 409.155C267.477 387.175 258.327 361.025 255.887 334.395C255.087 328.745 256.667 322.515 253.697 317.365C252.437 318.765 250.857 320.095 250.487 322.055C243.277 357.425 246.947 395.655 264.247 427.665C265.567 429.695 266.477 434.325 262.657 433.835C182.927 432.565 103.197 431.195 23.4773 429.875C16.2173 429.125 8.73735 426.685 3.21735 421.785C-1.45265 417.725 -0.952651 409.535 4.15735 406.085C9.55735 402.455 16.4873 402.905 22.6273 403.795C27.3973 396.105 32.1273 388.395 37.1373 380.865C38.5573 378.655 40.4173 376.675 41.3373 374.195C41.9173 372.355 40.7673 370.665 39.5773 369.405C24.5073 353.375 10.1073 335.955 2.11735 315.205C1.34735 312.345 3.37735 309.855 5.08735 307.815C27.3473 281.215 56.0573 260.895 85.9373 243.715C124.447 221.725 165.617 204.805 207.397 190.175C270.457 168.385 335.297 151.995 400.807 139.525C409.447 137.185 414.257 147.955 422.667 147.495C426.147 146.805 428.877 144.325 432.087 142.965C510.817 109.925 590.147 77.7848 672.167 53.7148C719.307 39.7748 767.187 28.3048 815.547 19.4448C855.918 11.8947 896.658 6.27466 937.628 3.37466M833.528 45.3847C791.428 51.2647 749.498 58.9247 708.558 70.4947C683.438 77.6247 658.218 84.5647 633.618 93.3847C594.258 107.515 555.918 124.325 517.958 141.825C511.248 144.825 504.728 148.305 497.738 150.625C495.788 151.285 494.028 152.395 492.328 153.535C494.378 156.045 497.758 156.135 500.698 156.785C527.068 161.705 553.258 167.615 579.768 171.735C595.268 173.965 610.958 175.645 626.638 175.135C629.928 175.215 630.798 171.425 628.718 169.295C618.748 155.605 608.468 142.145 598.468 128.485C596.208 125.115 599.548 121.695 601.698 119.305C604.878 116.275 606.888 111.675 611.298 110.225C623.968 105.295 636.488 99.9747 649.168 95.1147C657.268 94.2947 665.458 94.2447 673.598 93.8747C672.288 107.365 670.878 120.845 669.648 134.335C664.998 138.445 660.308 142.585 654.938 145.755C653.228 146.925 650.928 148.165 650.798 150.505C650.728 153.055 653.018 154.675 654.598 156.355C659.468 160.795 662.748 166.585 666.588 171.865C680.598 171.915 694.538 170.295 708.438 168.685C751.408 163.385 794.018 155.645 836.778 149.005C872.418 143.495 908.078 138.195 943.748 132.965C972.668 128.855 1001.54 124.375 1030.55 120.975C1034.01 120.515 1038.03 118.365 1038.11 114.425C1040.69 90.3647 1043.79 66.3447 1046.38 42.2947C1047.11 37.1547 1040.93 37.6047 1037.58 37.3147C969.518 34.2047 900.998 35.2147 833.528 45.3847M1208.85 39.2047C1209.87 40.7347 1211.05 42.2147 1212.62 43.2347C1227.31 53.2547 1241.96 63.3447 1256.65 73.3747C1240.92 78.5447 1225.28 83.9747 1209.47 88.8947C1206.15 89.9647 1202.61 90.5847 1199.63 92.4647C1198.94 95.0247 1202.17 95.4947 1204 95.0747C1236.49 90.2247 1268.96 85.2347 1301.5 80.7647C1303.49 80.6047 1305.24 79.6047 1306.85 78.4647C1305.2 76.9047 1303.39 75.4947 1301.26 74.7047C1272.93 63.3247 1244.61 51.9347 1216.3 40.5247C1213.95 39.5047 1211.36 39.2447 1208.85 39.2047M1085.14 45.5247C1084.96 64.8047 1085.21 84.1047 1084.61 103.395C1084.62 105.965 1084.62 109.145 1086.92 110.845C1088.64 112.055 1090.78 111.105 1092.69 110.985C1122.34 106.185 1152.09 101.935 1181.62 96.4147C1171.93 81.6647 1160.59 68.1047 1149.58 54.3547C1144.77 49.0147 1137.05 48.9547 1130.49 47.8447C1117.21 45.8447 1103.94 43.6847 1090.59 42.2547C1088.3 41.6947 1085.13 42.7847 1085.14 45.5247M1170.38 43.4047C1170.75 46.0047 1172.87 47.6447 1174.61 49.3847C1182.34 56.9747 1189.91 64.7247 1197.82 72.1247C1198.91 73.0547 1199.87 74.4847 1199.22 75.9747C1197.33 80.0047 1194.47 83.5147 1192.78 87.6447C1192.11 89.3447 1191.61 91.6747 1193.49 92.8247C1197.36 91.1347 1199.42 87.0847 1202.39 84.2547C1205.49 80.2447 1209.91 77.1947 1212.03 72.4847C1199.7 63.2447 1187.17 54.2647 1174.8 45.0747C1173.55 44.0147 1171.93 43.6547 1170.38 43.4047M613.468 211.705C594.698 214.375 576.018 217.765 557.188 219.995C572.007 219.375 586.678 216.805 601.428 215.215C765.138 195.375 928.858 175.625 1092.55 155.695C1104.26 153.835 1115.84 156.925 1127.38 158.475C1152.85 162.355 1178.32 166.325 1203.8 170.215C1206.06 170.535 1209.19 171.405 1209.27 174.225C1208.15 181.275 1206.2 188.185 1205.1 195.255C1203.03 205.595 1202.81 216.455 1198.44 226.215C1185.35 250.365 1171.74 274.245 1158.54 298.345C1157.77 299.825 1156.78 301.225 1155.24 301.975C1145.36 307.755 1135.52 313.635 1125.65 319.435C1124.13 320.425 1122.29 320.455 1120.56 320.475C1101.91 320.605 1083.26 320.855 1064.61 321.035C1055.29 321.295 1045.94 320.855 1036.65 321.695C881.828 339.705 727.008 357.665 572.198 375.685C599.988 374.645 627.778 373.055 655.568 371.845C781.598 365.895 907.628 359.935 1033.66 353.995C1037.44 353.965 1041 352.545 1044.6 351.555C1067.2 345.055 1089.81 338.565 1112.41 332.065C1132.5 326.135 1152.78 320.825 1172.71 314.365C1176.16 313.265 1179.82 313.105 1183.3 312.105C1187.39 310.785 1189.32 306.665 1191.55 303.345C1210.46 274.245 1229.4 245.165 1248.46 216.155C1258.24 201.335 1267.81 186.355 1278.03 171.825C1278.88 170.535 1279.62 169.075 1279.45 167.475C1276.99 166.315 1274.23 166.175 1271.62 165.605C1223.09 156.305 1174.56 147.015 1126.06 137.615C1120.28 136.455 1114.43 135.075 1108.5 135.615C943.498 160.965 778.478 186.315 613.468 211.705M386.118 198.195C350.288 202.775 317.108 224.305 298.478 255.265C277.768 288.605 274.978 332.145 290.918 367.965C299.638 387.985 313.968 405.495 331.768 418.135C358.608 437.365 393.468 444.755 425.828 438.315C459.008 432.025 489.008 411.085 506.398 382.145C526.498 349.555 529.598 307.335 514.778 272.065C506.718 252.475 493.328 235.175 476.558 222.265C451.208 202.625 417.868 193.845 386.118 198.195M156.868 216.495C125.648 225.385 95.5775 240.085 71.6375 262.285C68.2075 265.615 64.2775 268.505 61.5975 272.535C63.7975 274.555 66.8375 273.915 69.5075 273.625C75.6875 272.775 81.9075 272.375 88.1075 271.825C93.9575 265.935 100.368 260.625 107.028 255.665C134.558 235.535 165.558 220.725 197.068 207.965C183.498 209.895 170.048 212.735 156.868 216.495M59.0975 316.345C68.4875 339.795 78.0375 363.175 87.3775 386.645C76.0675 363.975 65.2475 341.075 54.0775 318.335C49.3175 319.985 44.6275 321.825 40.0075 323.835C38.1175 324.765 36.0175 325.745 34.8975 327.645C34.1275 329.125 35.1775 330.775 36.5275 331.445C40.9175 333.685 45.8175 334.705 50.2475 336.855C52.9975 341.445 55.1675 346.395 57.9075 351.015C63.2475 360.655 60.4675 372.165 57.3675 382.065C55.6975 387.905 52.0475 394.155 54.6675 400.275C56.3175 404.185 60.9575 404.425 64.5975 404.645C74.9575 405.095 85.3775 404.175 95.5675 402.345C102.418 399.125 108.668 394.715 115.298 391.055C116.978 389.855 119.988 388.955 119.518 386.345C118.998 383.665 117.008 381.605 115.618 379.345C102.998 360.335 90.3175 341.365 77.7775 322.305C75.1075 318.575 74.2275 311.875 68.7275 311.445C65.2275 312.385 62.3075 314.735 59.0975 316.345Z"/><path id="shape1" transform="matrix(0.72 0 0 0.72 1339.47907134082 114.464221281208)" fill="#d1d1d1" stroke="#000000" stroke-opacity="0" stroke-width="0" stroke-linecap="square" stroke-linejoin="bevel" d="M50.4599 1.68773C54.5899 0.727728 58.91 -0.642272 63.18 0.337728C65.9499 0.967728 66.78 4.44773 65.51 6.74773C58.52 20.7277 52.28 35.0777 46.02 49.3977C30.68 49.5877 15.3399 49.7077 0 49.8577C3.53 37.5577 7.02 25.2377 10.49 12.9177C23.7699 9.02773 37.0499 5.10773 50.4599 1.68773Z"/><path id="shape2" transform="matrix(0.72 0 0 0.72 1041.80744643194 152.025529220731)" fill="#d1d1d1" stroke="#000000" stroke-opacity="0" stroke-width="0" stroke-linecap="square" stroke-linejoin="bevel" d="M135.473 0.629245C173.653 -2.93076 213.053 8.71924 242.853 32.9292C270.373 54.9292 289.533 87.0292 295.863 121.699C303.243 160.529 294.473 202.189 271.743 234.569C252.003 263.149 221.923 284.359 188.343 293.269C147.303 304.559 101.563 297.229 66.2427 273.419C37.0027 253.989 15.0027 223.909 5.62271 190.039C-6.13729 148.909 0.742712 102.829 24.4527 67.1592C42.2027 40.0992 68.9827 19.0392 99.5927 8.44924C111.173 4.37924 123.253 1.78924 135.473 0.629245M132.463 28.5592C126.523 29.3392 120.653 30.5892 114.893 32.2192C81.3727 41.5292 52.5727 66.1892 38.0626 97.7892C20.7626 134.379 23.4526 179.519 45.1126 213.719C64.3526 244.969 98.4426 266.499 134.983 270.209C157.223 272.799 180.143 268.889 200.413 259.389C232.113 244.639 256.753 215.489 265.783 181.669C272.623 157.109 271.403 130.429 262.483 106.549C251.143 75.7193 226.613 50.0293 196.333 37.2893C176.333 28.7492 154.023 25.6792 132.463 28.5592Z"/><path id="shape3" transform="matrix(0.72 0 0 0.72 1325.78459934082 155.812185351563)" fill="#d1d1d1" stroke="#000000" stroke-opacity="0" stroke-width="0" stroke-linecap="square" stroke-linejoin="bevel" d="M16.52 0C29.85 0.08 43.18 0.22 56.52 0.36C58.53 0.52 60.81 0.27 62.63 1.4C63.5 2.42 63.03 3.8 62.88 4.99C60.86 14 60.61 23.26 60.1901 32.45C59.8301 44.44 59.8301 56.44 60.0301 68.44C51.8601 68.33 43.7001 68.16 35.5401 68.1C32.8901 68.05 30.1501 68.23 27.7101 67.09C18.49 63.32 9.2001 59.74 0 55.92C5.5901 37.31 11.02 18.64 16.52 0Z"/><path id="shape4" transform="matrix(0.72 0 0 0.72 1067.90215545439 178.692593946131)" fill="#d1d1d1" stroke="#000000" stroke-opacity="0" stroke-width="0" stroke-linecap="square" stroke-linejoin="bevel" d="M104.1 0.251655C125.85 -1.20835 148 3.70165 166.95 14.5317C193.97 29.7017 213.99 56.6617 220.66 86.9317C226.3 111.902 223.2 138.812 211.67 161.712C197.86 189.722 171.69 211.282 141.53 219.402C115.92 226.482 87.7901 224.142 63.7901 212.702C36.8901 200.112 15.5601 176.262 6.03006 148.132C-2.55994 123.172 -1.95994 95.1717 7.75016 70.6117C18.3802 43.3617 40.2102 20.7417 67.1102 9.22165C78.7901 4.12165 91.3802 1.12165 104.1 0.251655Z"/><path id="shape5" transform="matrix(0.72 0 0 0.72 253.425232202662 179.555806183454)" fill="#d1d1d1" stroke="#000000" stroke-opacity="0" stroke-width="0" stroke-linecap="square" stroke-linejoin="bevel" d="M95.368 1.23275C130.238 -4.13725 167.228 8.28275 191.708 33.6927C205.908 48.2627 216.058 66.7827 220.538 86.6427C225.598 108.573 223.858 132.013 215.588 152.953C204.618 181.013 181.758 204.083 153.798 215.303C130.218 224.893 103.338 226.013 78.988 218.633C48.548 209.543 22.588 186.703 9.74801 157.623C-5.75199 123.613 -2.61199 81.8327 18.058 50.6527C35.178 24.1127 64.098 5.61275 95.368 1.23275Z"/>
</svg>
